# xmcd
#
# Track frame offsets:
# 150
# 15600
# 28418
# 38842
# 52226
# 68714
# 78835
# 92809
# 102754
# 119347
# 133721
# 150190
# 163250
# 176650
#
# Disc length: 2510 seconds
#
#
# Revision: 0
# Processed by: cddbd v1.5.1PL2 Copyright (c) Steve Scherf et al.
# Submitted via: FreeRIP 2.945 
#
DISCID=b409cc0e
DTITLE=Pedro Paulo and Paulo Afonso - Pedro Paulo and Paulo Afonso
DYEAR=2006
DGENRE=Country
TTITLE0=Cabra Bom
TTITLE1=Vem Cutchuquinha
TTITLE2=Homem D´água
TTITLE3=Sol de Verão
TTITLE4=Praia de Verão
TTITLE5=Memórias de Pescaria
TTITLE6=Seu Jeito
TTITLE7=Meus Dias Sem Você
TTITLE8=Acelera Campeão
TTITLE9=Despertar e Viver
TTITLE10=Onde Nasceu a Saudade
TTITLE11=Cuida de Mim
TTITLE12=Nihil
TTITLE13=Nihil 2
EXTD=By Novathynho 2006
EXTT0=
EXTT1=
EXTT2=
EXTT3=
EXTT4=
EXTT5=
EXTT6=
EXTT7=
EXTT8=
EXTT9=
EXTT10=
EXTT11=
EXTT12=
EXTT13=
PLAYORDER=
